<?xml version="1.0" encoding="UTF-8"?><svg xmlns="http://www.w3.org/2000/svg" xmlns:xlink="http://www.w3.org/1999/xlink" viewBox="0 0 1950 1315.88"><defs><radialGradient id="radial-gradient" cx="1371.82" cy="1017.34" fx="1371.82" fy="1017.34" r="169.98" gradientTransform="translate(1121.17 -672.05) rotate(45)" gradientUnits="userSpaceOnUse"><stop offset="0" stop-color="#ff7d00"/><stop offset="0" stop-color="#ff7d01" stop-opacity=".99"/><stop offset=".23" stop-color="#ffa44d" stop-opacity=".7"/><stop offset=".43" stop-color="#ffc48c" stop-opacity=".45"/><stop offset=".62" stop-color="#ffddbd" stop-opacity=".26"/><stop offset=".78" stop-color="#ffefe1" stop-opacity=".12"/><stop offset=".91" stop-color="#fffaf7" stop-opacity=".03"/><stop offset="1" stop-color="#fff" stop-opacity="0"/></radialGradient><radialGradient id="radial-gradient-2" cx="586.53" fx="586.53" r="169.98" gradientTransform="translate(891.16 -116.76) rotate(45)" xlink:href="#radial-gradient"/><radialGradient id="radial-gradient-3" cx="979.17" cy="1197.6" fx="979.17" fy="1197.6" r="276.2" gradientUnits="userSpaceOnUse"><stop offset="0" stop-color="#fff200"/><stop offset="1" stop-color="#ff6a00"/></radialGradient><radialGradient id="radial-gradient-4" cx="979.17" cy="1197.6" fx="979.17" fy="1197.6" r="397.18" gradientTransform="translate(0 636.9) scale(1 .47)" gradientUnits="userSpaceOnUse"><stop offset="0" stop-color="#4b1803"/><stop offset="1" stop-color="#210501"/></radialGradient><radialGradient id="radial-gradient-5" cx="808.12" cy="865.47" fx="808.12" fy="865.47" r="146.58" gradientTransform="translate(0 460.27) scale(1 .47)" xlink:href="#radial-gradient-3"/><radialGradient id="radial-gradient-6" cx="808.12" cy="865.47" fx="808.12" fy="865.47" r="140.39" gradientTransform="translate(0 460.27) scale(1 .47)" xlink:href="#radial-gradient-4"/><radialGradient id="radial-gradient-7" cx="1157.25" cy="865.47" fx="1157.25" fy="865.47" r="146.58" gradientTransform="translate(0 460.27) scale(1 .47)" xlink:href="#radial-gradient-3"/><radialGradient id="radial-gradient-8" cx="1157.25" cy="865.47" fx="1157.25" fy="865.47" r="140.39" gradientTransform="translate(0 460.27) scale(1 .47)" xlink:href="#radial-gradient-4"/><linearGradient id="linear-gradient" x1="975.01" y1="1367.2" x2="975.01" y2="2027.18" gradientTransform="translate(0 1949.93) scale(1 -1)" gradientUnits="userSpaceOnUse"><stop offset="0" stop-color="#ff526d"/><stop offset="1" stop-color="#b00054"/></linearGradient><linearGradient id="linear-gradient-2" x1="225.68" y1="1349.55" x2="1723.53" y2="1349.55" xlink:href="#linear-gradient"/><linearGradient id="linear-gradient-3" x1="394.53" y1="1789.25" x2="316.47" y2="864.04" gradientTransform="translate(0 1949.93) scale(1 -1)" gradientUnits="userSpaceOnUse"><stop offset="0" stop-color="#00b6ff"/><stop offset="1" stop-color="#5546d3"/></linearGradient><linearGradient id="linear-gradient-4" x1="1509.23" y1="1875.22" x2="1665.36" y2="825.68" gradientTransform="translate(0 1949.93) scale(1 -1)" gradientUnits="userSpaceOnUse"><stop offset="0" stop-color="#fd0"/><stop offset="1" stop-color="#de5d1f"/></linearGradient><linearGradient id="linear-gradient-5" x1="225.68" y1="1299.27" x2="695.91" y2="1299.27" xlink:href="#linear-gradient-3"/><linearGradient id="linear-gradient-6" x1="1253.57" y1="1299.3" x2="1723.53" y2="1299.3" xlink:href="#linear-gradient-4"/></defs><g isolation="isolate"><g id="Layer_1"><circle cx="1371.82" cy="1017.34" r="169.98" transform="translate(-317.57 1267.99) rotate(-45)" fill="url(#radial-gradient)" mix-blend-mode="multiply"/><circle cx="586.53" cy="1017.34" r="169.98" transform="translate(-547.58 712.71) rotate(-45)" fill="url(#radial-gradient-2)" mix-blend-mode="multiply"/><path d="M979.13,1315.88c-77.75-.41-152.79-20.41-217.01-57.81-33.17-19.33-63.14-42.81-89.07-69.79-26.46-27.9-48.3-58.99-64.95-92.47-1.36-2.73-1.57-5.81-.6-8.7.97-2.89,3-5.22,5.73-6.58,1.56-.78,3.32-1.19,5.07-1.19,2.43,0,4.85.8,6.8,2.25l1.47,1.1c5.43,4.06,10.42,8.18,15.24,12.17,2.45,2.02,4.87,4.03,7.31,5.99l21.47,16.3c3.67,2.39,7.11,4.86,10.44,7.25,3.78,2.71,7.35,5.27,11.09,7.62,3.15,1.88,6.3,3.94,9.41,5.98,4.11,2.7,7.99,5.25,12.1,7.48,28.78,17.07,58.11,31.1,87.44,41.83l16.38,5.89,5.45,1.54c2.66.75,5.25,1.6,7.84,2.45l8.86,2.86,5.42,1.33,11.3,2.82c1.85.45,3.71.94,5.55,1.48l5.37,1.08,11.33,2.35,5.73,1.31c.81.15,1.88.31,2.94.46.76.11,1.52.22,2.27.35,29.18,5.18,59.33,7.87,89.71,8.04,30.2-.08,60.35-2.73,89.57-7.89,16.41-3.02,30.98-6.23,44.5-9.79l5.54-1.36,8.59-2.78c2.71-.89,5.44-1.78,8.24-2.53l5.34-1.51,16.42-5.93c29.3-10.7,58.64-24.74,87.18-41.71,4.29-2.34,8.12-4.86,12.17-7.53,3.11-2.05,6.32-4.17,9.73-6.2,2.3-1.31,4.37-2.83,6.56-4.44,1.26-.92,2.53-1.86,3.84-2.76,2.45-1.81,5.22-3.7,8.02-5.61l3-2.05,21.53-16.41c2.26-1.83,4.68-3.83,7.11-5.86,4.81-4,9.79-8.13,15.22-12.21l1.44-1.08c1.98-1.49,4.35-2.28,6.84-2.28,3.57,0,6.98,1.7,9.12,4.56,2.6,3.45,3.02,8.01,1.1,11.9-16.66,33.5-38.51,64.59-64.93,92.44-25.93,26.99-55.9,50.47-89.1,69.82-64.15,37.39-139.19,57.39-217.01,57.83h-.08Z" fill="url(#radial-gradient-3)"/><path d="M622.07,1088.7c8.03,6,15.1,12.18,22.34,18l21.86,16.59c7.68,4.98,14.42,10.42,21.87,15.09,7.6,4.53,14.34,9.59,21.91,13.69,29.24,17.35,58.65,31.38,88.43,42.28l11.14,4.02,5.53,1.98,5.7,1.61c3.79,1.07,7.45,2.35,11.16,3.53l5.53,1.78,5.68,1.39,11.27,2.81c1.87.46,3.73.95,5.57,1.49l5.68,1.15,11.28,2.35,5.58,1.28c1.88.37,3.79.59,5.68.9,30.12,5.34,60.39,7.97,90.88,8.14,30.48-.08,60.78-2.68,90.91-8,15.03-2.77,30.09-5.97,45.11-9.93l5.68-1.4,5.53-1.79c3.71-1.17,7.36-2.48,11.18-3.5l5.7-1.61,5.53-1.99,11.14-4.03c29.81-10.88,59.23-24.93,88.47-42.32,7.56-4.11,14.29-9.2,21.9-13.72,3.88-2.21,7.17-4.95,10.82-7.46,3.53-2.6,7.29-5.09,11.03-7.66l21.82-16.62c7.22-5.83,14.29-12.02,22.29-18.03l1.44-1.08c1.71-1.29,4.15-.94,5.44.77.91,1.21,1,2.79.37,4.06-16.47,33.11-38.11,63.68-63.65,90.6-25.71,26.77-55.32,49.79-87.43,68.5-64.33,37.5-138.9,56.39-213.26,56.8-74.37-.4-148.93-19.32-213.27-56.79-32.12-18.72-61.71-41.74-87.43-68.51-25.54-26.92-47.17-57.5-63.64-90.61-.95-1.92-.17-4.25,1.75-5.2,1.35-.67,2.91-.48,4.05.36l1.45,1.09Z" fill="url(#radial-gradient-4)"/><path d="M920.32,933.27c-3.84,0-7.23-1.93-9.3-5.29-24.09-39.09-62.56-62.43-102.9-62.43s-78.81,23.34-102.9,62.43c-2.07,3.36-5.46,5.29-9.3,5.29h0c-3.34,0-6.57-1.52-8.67-4.06-2.06-2.5-2.83-5.71-2.17-9.02,14.33-72.13,64.92-122.5,123.04-122.5s108.71,50.38,123.04,122.5c.66,3.32-.11,6.52-2.17,9.02-2.09,2.54-5.33,4.06-8.67,4.06Z" fill="url(#radial-gradient-5)"/><path d="M808.12,861.17c43.74,0,82.52,25.39,106.63,64.51,3.87,6.28,13.55,2.59,12.11-4.65-13.59-68.41-61.59-118.98-118.74-118.98s-105.15,50.56-118.74,118.98c-1.44,7.24,8.24,10.93,12.11,4.65,24.11-39.13,62.89-64.51,106.63-64.51Z" fill="url(#radial-gradient-6)"/><path d="M1269.46,933.27c-3.84,0-7.23-1.93-9.3-5.29-24.09-39.09-62.56-62.43-102.9-62.43s-78.81,23.34-102.9,62.43c-2.07,3.36-5.46,5.29-9.3,5.29h0c-3.34,0-6.57-1.52-8.67-4.06-2.06-2.5-2.83-5.71-2.17-9.02,14.33-72.13,64.92-122.5,123.04-122.5s108.71,50.38,123.04,122.5c.66,3.32-.11,6.52-2.17,9.02-2.09,2.54-5.33,4.06-8.67,4.06Z" fill="url(#radial-gradient-7)"/><path d="M1157.25,861.17c43.74,0,82.52,25.39,106.63,64.51,3.87,6.28,13.55,2.59,12.11-4.65-13.59-68.41-61.59-118.98-118.74-118.98s-105.15,50.56-118.74,118.98c-1.44,7.24,8.24,10.93,12.11,4.65,24.11-39.13,62.89-64.51,106.63-64.51Z" fill="url(#radial-gradient-8)"/><path d="M1532.74,974.94c0-155.13-63.34-295.47-165.65-396.54-100.72-99.59-239.22-161.16-392.1-161.16s-291.39,61.57-392.1,161.1c-102.25,101.13-165.59,241.47-165.59,396.6H.04C.04,704.61,110.1,459.94,287.88,283.35,464.12,108.17,706.89,0,974.98,0s510.92,108.17,687.16,283.35c177.78,176.6,287.84,421.26,287.84,691.59h-417.24Z" fill="url(#linear-gradient)"/><path d="M1723.53,974.94h-190.8c0-155.13-63.34-295.47-165.65-396.54-100.72-99.59-239.22-161.16-392.1-161.16s-291.39,61.57-392.1,161.1c-102.25,101.13-165.59,241.47-165.59,396.6h-191.6c-.12-127.3,32.03-256.32,100.26-374.49,206.84-358.25,664.93-480.99,1023.18-274.16,240.07,138.6,374.16,390.04,374.42,648.64Z" fill="url(#linear-gradient-2)"/><path d="M695.91,492.16l-208.67-361.39c-73.03,42.12-139.94,93.51-199.41,152.59C110.07,459.95,0,704.61,0,974.96h417.34c0-155.2,63.25-295.53,165.5-396.6,33.78-33.39,71.73-62.34,113.07-86.21Z" fill="url(#linear-gradient-3)"/><path d="M1532.79,974.96h417.21c0-270.36-110.07-515.02-287.83-691.6-59.6-59.21-126.77-110.72-199.93-152.98l-208.67,361.39c41.47,24,79.55,53.08,113.46,86.6,102.38,101.07,165.76,241.4,165.76,396.6Z" fill="url(#linear-gradient-4)"/><path d="M417.34,974.97h-191.65c-.12-127.3,32.03-256.34,100.26-374.51,68.24-118.19,163.91-210.55,274.23-274.1l95.74,165.8c-41.34,23.87-79.29,52.82-113.07,86.21-102.25,101.07-165.5,241.4-165.5,396.6Z" fill="url(#linear-gradient-5)"/><path d="M1723.53,974.97h-190.74c0-155.2-63.38-295.53-165.76-396.6-33.91-33.52-71.99-62.6-113.46-86.6l95.55-165.47c240.07,138.61,374.17,390.06,374.42,648.67Z" fill="url(#linear-gradient-6)"/></g></g></svg>